<svg width="257" height="39" viewBox="0 0 257 39" fill="none" xmlns="http://www.w3.org/2000/svg">
<path d="M16.928 31L12.608 24.76H12.352H7.84V31H2.656V8.6H12.352C14.336 8.6 16.0533 8.93067 17.504 9.592C18.976 10.2533 20.1067 11.192 20.896 12.408C21.6853 13.624 22.08 15.064 22.08 16.728C22.08 18.392 21.6747 19.832 20.864 21.048C20.0747 22.2427 18.944 23.16 17.472 23.8L22.496 31H16.928ZM16.832 16.728C16.832 15.4693 16.4267 14.5093 15.616 13.848C14.8053 13.1653 13.6213 12.824 12.064 12.824H7.84V20.632H12.064C13.6213 20.632 14.8053 20.2907 15.616 19.608C16.4267 18.9253 16.832 17.9653 16.832 16.728ZM43.4713 26.84V31H26.1273V8.6H43.0553V12.76H31.2793V17.624H41.6793V21.656H31.2793V26.84H43.4713ZM47.536 8.6H57.712C60.144 8.6 62.288 9.06933 64.144 10.008C66.0213 10.9253 67.472 12.2267 68.496 13.912C69.5413 15.5973 70.064 17.56 70.064 19.8C70.064 22.04 69.5413 24.0027 68.496 25.688C67.472 27.3733 66.0213 28.6853 64.144 29.624C62.288 30.5413 60.144 31 57.712 31H47.536V8.6ZM57.456 26.744C59.696 26.744 61.4773 26.1253 62.8 24.888C64.144 23.6293 64.816 21.9333 64.816 19.8C64.816 17.6667 64.144 15.9813 62.8 14.744C61.4773 13.4853 59.696 12.856 57.456 12.856H52.72V26.744H57.456ZM83.8655 31.384C80.6655 31.384 78.1695 30.4987 76.3775 28.728C74.6068 26.9573 73.7215 24.4293 73.7215 21.144V8.6H78.9055V20.952C78.9055 24.9627 80.5695 26.968 83.8975 26.968C85.5188 26.968 86.7562 26.488 87.6095 25.528C88.4628 24.5467 88.8895 23.0213 88.8895 20.952V8.6H94.0095V21.144C94.0095 24.4293 93.1135 26.9573 91.3215 28.728C89.5508 30.4987 87.0655 31.384 83.8655 31.384ZM112.872 31L107.464 23.224L102.152 31H96.1998L104.488 19.608L96.6158 8.6H102.504L107.656 15.864L112.712 8.6H118.312L110.504 19.416L118.856 31H112.872Z" fill="#59C16F"/>
<path d="M132.263 31.384C129.981 31.384 127.911 30.8933 126.055 29.912C124.221 28.9093 122.77 27.5333 121.703 25.784C120.658 24.0133 120.135 22.0187 120.135 19.8C120.135 17.5813 120.658 15.5973 121.703 13.848C122.77 12.0773 124.221 10.7013 126.055 9.72C127.911 8.71733 129.991 8.216 132.295 8.216C134.237 8.216 135.986 8.55733 137.543 9.24C139.122 9.92267 140.445 10.904 141.511 12.184L138.183 15.256C136.669 13.5067 134.791 12.632 132.551 12.632C131.165 12.632 129.927 12.9413 128.839 13.56C127.751 14.1573 126.898 15 126.279 16.088C125.682 17.176 125.383 18.4133 125.383 19.8C125.383 21.1867 125.682 22.424 126.279 23.512C126.898 24.6 127.751 25.4533 128.839 26.072C129.927 26.6693 131.165 26.968 132.551 26.968C134.791 26.968 136.669 26.0827 138.183 24.312L141.511 27.384C140.445 28.6853 139.122 29.6773 137.543 30.36C135.965 31.0427 134.205 31.384 132.263 31.384ZM159.267 26.2H148.867L146.883 31H141.571L151.555 8.6H156.675L166.691 31H161.251L159.267 26.2ZM157.635 22.264L154.083 13.688L150.531 22.264H157.635ZM183.227 31L178.907 24.76H178.651H174.139V31H168.955V8.6H178.651C180.635 8.6 182.352 8.93067 183.803 9.592C185.275 10.2533 186.405 11.192 187.195 12.408C187.984 13.624 188.379 15.064 188.379 16.728C188.379 18.392 187.973 19.832 187.163 21.048C186.373 22.2427 185.243 23.16 183.771 23.8L188.795 31H183.227ZM183.131 16.728C183.131 15.4693 182.725 14.5093 181.915 13.848C181.104 13.1653 179.92 12.824 178.363 12.824H174.139V20.632H178.363C179.92 20.632 181.104 20.2907 181.915 19.608C182.725 18.9253 183.131 17.9653 183.131 16.728ZM196.754 12.824H189.586V8.6H209.106V12.824H201.938V31H196.754V12.824Z" fill="#201E20"/>
<path d="M245.491 26.3469C246.849 26.2067 247.879 25.0384 247.832 23.6365C247.785 22.2346 246.615 21.113 245.211 21.113H245.117C243.666 21.1598 242.542 22.3748 242.589 23.8234C242.636 24.5244 242.917 25.1319 243.338 25.5525C241.746 28.6835 239.312 30.9733 235.66 32.8893C233.179 34.1977 230.604 34.665 228.029 34.3379C225.922 34.0575 224.284 33.1229 223.254 31.5808C221.755 29.291 221.615 26.8142 222.879 24.3375C223.769 22.5617 225.173 21.2532 226.063 20.599C225.875 19.9915 225.594 18.9634 225.454 18.2157C218.666 23.1225 219.368 29.7583 221.428 32.8893C222.973 35.2258 226.109 36.6745 229.574 36.6745C230.51 36.6745 231.446 36.581 232.383 36.3474C238.375 35.1791 242.917 31.6275 245.491 26.3469ZM253.731 20.5523C250.173 16.3932 244.93 14.1034 238.937 14.1034H238.188C237.767 13.2622 236.877 12.7014 235.894 12.7014H235.8C234.349 12.7482 233.225 13.9632 233.272 15.4118C233.319 16.8138 234.49 17.9353 235.894 17.9353H235.988C237.018 17.8886 237.907 17.2343 238.282 16.3465H239.124C242.682 16.3465 246.053 17.3745 249.096 19.384C251.437 20.9261 253.123 22.9355 254.059 25.3656C254.855 27.3283 254.808 29.2442 253.965 30.8798C252.654 33.3566 250.454 34.7118 247.551 34.7118C245.679 34.7118 243.9 34.151 242.963 33.7304C242.448 34.1977 241.512 34.9454 240.857 35.4127C242.87 36.3474 244.93 36.8614 246.896 36.8614C251.39 36.8614 254.714 34.3847 255.978 31.9079C257.336 29.1975 257.242 24.5244 253.731 20.5523ZM229.948 27.1413C229.995 28.5433 231.166 29.6648 232.57 29.6648H232.664C234.115 29.6181 235.239 28.4031 235.192 26.9544C235.145 25.5525 233.975 24.4309 232.57 24.4309H232.476C232.383 24.4309 232.242 24.4309 232.149 24.4777C230.229 21.2999 229.433 17.8418 229.714 14.1034C229.902 11.2995 230.838 8.86947 232.476 6.86004C233.834 5.13098 236.456 4.28982 238.235 4.24309C243.197 4.14963 245.304 10.3181 245.445 12.7949C246.053 12.9351 247.083 13.2622 247.785 13.4959C247.224 5.92541 242.542 2 238.048 2C233.834 2 229.948 5.03752 228.403 9.52371C226.25 15.5053 227.654 21.2532 230.276 25.7861C230.042 26.1133 229.902 26.6273 229.948 27.1413Z" fill="#201E20"/>
</svg>
